<svg xmlns="http://www.w3.org/2000/svg" xmlns:xlink="http://www.w3.org/1999/xlink" version="1.1" width="256" height="256" viewBox="0 0 256 256" xml:space="preserve">

<defs>
</defs>
<g style="stroke: none; stroke-width: 0; stroke-dasharray: none; stroke-linecap: butt; stroke-linejoin: miter; stroke-miterlimit: 10; fill: none; fill-rule: nonzero; opacity: 1;" transform="translate(1.4065934065934016 1.4065934065934016) scale(2.81 2.81)" >
	<path d="M 46.169 13.883 c -2.671 0 -4.844 -2.173 -4.844 -4.843 c 0 -2.671 2.173 -4.844 4.844 -4.844 c 2.67 0 4.843 2.173 4.843 4.844 C 51.012 11.71 48.839 13.883 46.169 13.883 z" style="stroke: none; stroke-width: 1; stroke-dasharray: none; stroke-linecap: butt; stroke-linejoin: miter; stroke-miterlimit: 10; fill: rgb(0,0,0); fill-rule: nonzero; opacity: 1;" transform=" matrix(1 0 0 1 0 0) " stroke-linecap="round" />
	<path d="M 30.04 8.561 c -2.36 0 -4.28 -1.92 -4.28 -4.28 S 27.68 0 30.04 0 s 4.281 1.92 4.281 4.281 S 32.4 8.561 30.04 8.561 z" style="stroke: none; stroke-width: 1; stroke-dasharray: none; stroke-linecap: butt; stroke-linejoin: miter; stroke-miterlimit: 10; fill: rgb(0,0,0); fill-rule: nonzero; opacity: 1;" transform=" matrix(1 0 0 1 0 0) " stroke-linecap="round" />
	<path d="M 84.412 51.765 c -1.78 0 -3.278 -1.395 -3.384 -3.193 c -0.009 -0.14 -0.008 -0.28 0.002 -0.42 c -0.571 -0.373 -1.045 -0.877 -1.383 -1.471 c -0.021 0.001 -0.042 0.003 -0.063 0.004 c -2.565 0.153 -4.907 -1.165 -6.144 -3.332 c -0.165 0.031 -0.329 0.051 -0.494 0.061 c -1.509 0.083 -2.9 -0.608 -3.746 -1.795 c -0.289 0.1 -0.591 0.16 -0.9 0.178 c -1.509 0.08 -2.89 -0.838 -3.391 -2.248 c -0.106 -0.3 -0.171 -0.616 -0.189 -0.938 c -0.053 -0.905 0.249 -1.775 0.852 -2.452 c 0.603 -0.677 1.432 -1.078 2.336 -1.131 l 0 0 c 0.794 -0.044 1.564 0.187 2.186 0.644 c 0.677 -0.518 1.494 -0.829 2.352 -0.879 c 0.768 -0.043 1.514 0.117 2.188 0.46 c 0.263 -0.25 0.546 -0.479 0.847 -0.684 c 0.985 -0.672 2.139 -1.064 3.334 -1.134 c 3.646 -0.205 6.799 2.587 7.011 6.24 c 0.025 0.429 0.008 0.858 -0.051 1.284 c 1.126 0.741 1.844 1.959 1.925 3.337 c 0.044 0.76 -0.12 1.516 -0.467 2.194 c 0.334 0.497 0.53 1.075 0.565 1.688 c 0.05 0.838 -0.213 1.66 -0.737 2.315 c -0.6 0.748 -1.493 1.21 -2.449 1.266 C 84.544 51.763 84.478 51.765 84.412 51.765 z" style="stroke: none; stroke-width: 1; stroke-dasharray: none; stroke-linecap: butt; stroke-linejoin: miter; stroke-miterlimit: 10; fill: rgb(0,0,0); fill-rule: nonzero; opacity: 1;" transform=" matrix(1 0 0 1 0 0) " stroke-linecap="round" />
	<path d="M 80.84 26.491 c -2.36 0 -4.28 -1.92 -4.28 -4.281 s 1.92 -4.281 4.28 -4.281 s 4.28 1.92 4.28 4.281 S 83.2 26.491 80.84 26.491 z" style="stroke: none; stroke-width: 1; stroke-dasharray: none; stroke-linecap: butt; stroke-linejoin: miter; stroke-miterlimit: 10; fill: rgb(0,0,0); fill-rule: nonzero; opacity: 1;" transform=" matrix(1 0 0 1 0 0) " stroke-linecap="round" />
	<path d="M 67.046 15.875 c -3.197 0 -5.799 -2.602 -5.799 -5.799 s 2.602 -5.799 5.799 -5.799 c 3.198 0 5.8 2.602 5.8 5.799 S 70.244 15.875 67.046 15.875 z" style="stroke: none; stroke-width: 1; stroke-dasharray: none; stroke-linecap: butt; stroke-linejoin: miter; stroke-miterlimit: 10; fill: rgb(0,0,0); fill-rule: nonzero; opacity: 1;" transform=" matrix(1 0 0 1 0 0) " stroke-linecap="round" />
	<path d="M 2.037 70.35 v 15.764 C 2.037 87.708 3.329 89 4.923 89 h 12.725 c 1.594 0 2.885 -1.292 2.885 -2.885 V 70.35 H 2.037 z" style="stroke: none; stroke-width: 1; stroke-dasharray: none; stroke-linecap: butt; stroke-linejoin: miter; stroke-miterlimit: 10; fill: rgb(0,0,0); fill-rule: nonzero; opacity: 1;" transform=" matrix(1 0 0 1 0 0) " stroke-linecap="round" />
	<path d="M 69.467 70.35 v 15.764 c 0 1.594 1.292 2.885 2.885 2.885 h 12.725 c 1.594 0 2.885 -1.292 2.885 -2.885 V 70.35 H 69.467 z" style="stroke: none; stroke-width: 1; stroke-dasharray: none; stroke-linecap: butt; stroke-linejoin: miter; stroke-miterlimit: 10; fill: rgb(0,0,0); fill-rule: nonzero; opacity: 1;" transform=" matrix(1 0 0 1 0 0) " stroke-linecap="round" />
	<path d="M 17.648 90 H 4.923 c -2.143 0 -3.885 -1.743 -3.885 -3.886 V 73.228 c 0 -0.553 0.448 -1 1 -1 s 1 0.447 1 1 v 12.886 c 0 1.04 0.846 1.886 1.885 1.886 h 12.725 c 1.04 0 1.885 -0.846 1.885 -1.886 v -6.71 c 0 -0.553 0.448 -1 1 -1 c 0.552 0 1 0.447 1 1 v 6.71 C 21.533 88.257 19.791 90 17.648 90 z" style="stroke: none; stroke-width: 1; stroke-dasharray: none; stroke-linecap: butt; stroke-linejoin: miter; stroke-miterlimit: 10; fill: rgb(0,0,0); fill-rule: nonzero; opacity: 1;" transform=" matrix(1 0 0 1 0 0) " stroke-linecap="round" />
	<path d="M 85.078 90 H 72.352 c -2.142 0 -3.885 -1.743 -3.885 -3.886 v -6.44 c 0 -0.553 0.447 -1 1 -1 c 0.553 0 1 0.447 1 1 v 6.44 c 0 1.04 0.846 1.886 1.885 1.886 h 12.726 c 1.04 0 1.886 -0.846 1.886 -1.886 V 73.218 c 0 -0.553 0.447 -1 1 -1 s 1 0.447 1 1 v 12.897 C 88.964 88.257 87.221 90 85.078 90 z" style="stroke: none; stroke-width: 1; stroke-dasharray: none; stroke-linecap: butt; stroke-linejoin: miter; stroke-miterlimit: 10; fill: rgb(0,0,0); fill-rule: nonzero; opacity: 1;" transform=" matrix(1 0 0 1 0 0) " stroke-linecap="round" />
	<path d="M 13.886 39.277 c -2.478 0 -4.494 -2.016 -4.494 -4.494 c 0 -0.908 0.268 -1.773 0.766 -2.509 c -0.617 -0.945 -0.95 -2.042 -0.95 -3.164 c 0 -1.968 0.97 -3.753 2.579 -4.832 c -0.157 -0.681 -0.237 -1.374 -0.237 -2.07 c 0 -5.094 4.144 -9.238 9.238 -9.238 c 2.298 0 4.514 0.869 6.208 2.41 c 2.02 -1.336 4.824 -1.23 6.739 0.245 c 0.824 -0.8 1.922 -1.255 3.104 -1.255 c 2.478 0 4.494 2.016 4.494 4.494 s -2.016 4.494 -4.494 4.494 c -0.529 0 -1.048 -0.094 -1.539 -0.275 c -1.165 2.132 -3.577 3.409 -6.099 2.934 c -1.482 3.283 -4.754 5.43 -8.413 5.43 c -0.126 0 -0.253 -0.003 -0.384 -0.01 c -0.445 1.027 -1.175 1.902 -2.103 2.524 c 0.052 0.272 0.078 0.547 0.078 0.823 C 18.38 37.262 16.364 39.277 13.886 39.277 z" style="stroke: none; stroke-width: 1; stroke-dasharray: none; stroke-linecap: butt; stroke-linejoin: miter; stroke-miterlimit: 10; fill: rgb(0,0,0); fill-rule: nonzero; opacity: 1;" transform=" matrix(1 0 0 1 0 0) " stroke-linecap="round" />
	<path d="M 71.147 25.763 l 2.438 6.092 c 0.156 0.02 0.314 0.031 0.469 0.06 c 0.495 -0.314 1.025 -0.564 1.567 -0.782 l -2.516 -6.286 c -0.985 -2.46 -3.208 -4.177 -5.803 -4.484 c -7.623 -0.902 -15.303 -1.33 -22.981 -1.302 c -0.016 0.6 -0.104 1.181 -0.255 1.738 c 7.426 -0.038 14.852 0.37 22.278 1.248 C 68.504 22.302 70.34 23.745 71.147 25.763 z" style="stroke: none; stroke-width: 1; stroke-dasharray: none; stroke-linecap: butt; stroke-linejoin: miter; stroke-miterlimit: 10; fill: rgb(0,0,0); fill-rule: nonzero; opacity: 1;" transform=" matrix(1 0 0 1 0 0) " stroke-linecap="round" />
	<path d="M 84.785 54.754 c -0.124 0.007 -0.249 0.011 -0.373 0.011 c -3.074 0 -5.671 -2.188 -6.264 -5.125 c -2.432 -0.26 -4.644 -1.422 -6.229 -3.262 c -1.409 -0.15 -2.727 -0.699 -3.811 -1.578 c -2.688 -0.011 -5.128 -1.716 -6.027 -4.248 c -0.179 -0.506 -0.282 -1.031 -0.331 -1.563 c -13.961 -0.39 -27.922 -0.292 -41.883 0.296 c -1.369 1.814 -3.54 2.991 -5.983 2.991 c -1.646 0 -3.164 -0.54 -4.402 -1.443 l -3.003 3.119 c -4.45 4.622 -6.8 10.946 -6.446 17.353 l 0.526 9.52 c 0.297 5.371 4.743 9.578 10.122 9.578 h 68.634 c 5.379 0 9.825 -4.207 10.121 -9.577 l 0.526 -9.521 c 0.158 -2.854 -0.223 -5.691 -1.086 -8.369 C 87.782 54.009 86.33 54.664 84.785 54.754 z M 31.546 60.097 h 26.909 c 0.828 0 1.5 0.672 1.5 1.5 s -0.672 1.5 -1.5 1.5 H 31.546 c -0.829 0 -1.5 -0.672 -1.5 -1.5 S 30.718 60.097 31.546 60.097 z M 20.009 61.776 c -2.006 3.916 -6.182 5.785 -9.327 4.174 c -3.145 -1.611 -4.069 -6.092 -2.063 -10.008 s 6.182 -5.785 9.327 -4.174 C 21.092 53.379 22.015 57.86 20.009 61.776 z M 64.954 70.097 H 25.046 c -0.829 0 -1.5 -0.672 -1.5 -1.5 s 0.671 -1.5 1.5 -1.5 h 39.908 c 0.828 0 1.5 0.672 1.5 1.5 S 65.782 70.097 64.954 70.097 z M 79.318 65.95 c -3.145 1.611 -7.321 -0.258 -9.327 -4.174 s -1.083 -8.397 2.063 -10.008 c 3.145 -1.611 7.321 0.258 9.327 4.174 S 82.464 64.339 79.318 65.95 z" style="stroke: none; stroke-width: 1; stroke-dasharray: none; stroke-linecap: butt; stroke-linejoin: miter; stroke-miterlimit: 10; fill: rgb(0,0,0); fill-rule: nonzero; opacity: 1;" transform=" matrix(1 0 0 1 0 0) " stroke-linecap="round" />
</g>
</svg>